<svg width="18" height="18" viewBox="0 0 18 18" fill="none" xmlns="http://www.w3.org/2000/svg">
<path d="M16.2813 7.12648C16.0008 6.83333 15.7107 6.53124 15.6012 6.26563C15.5001 6.02232 15.4941 5.61904 15.4882 5.22842C15.477 4.50223 15.4651 3.67931 14.8929 3.10714C14.3207 2.53497 13.4979 2.52306 12.7717 2.5119C12.381 2.50595 11.9778 2.5 11.7345 2.39881C11.4696 2.28944 11.1667 1.99925 10.8736 1.71875C10.3602 1.22545 9.77684 0.666664 9.00008 0.666664C8.22329 0.666664 7.64071 1.22545 7.12657 1.71875C6.83341 1.99925 6.53133 2.28944 6.26571 2.39881C6.02389 2.5 5.61913 2.50595 5.2285 2.5119C4.50231 2.52306 3.6794 2.53497 3.10722 3.10714C2.53505 3.67931 2.52686 4.50223 2.51199 5.22842C2.50603 5.61904 2.50008 6.02232 2.39889 6.26563C2.28952 6.5305 1.99934 6.83333 1.71883 7.12648C1.22553 7.63988 0.666748 8.22321 0.666748 9C0.666748 9.77676 1.22553 10.3593 1.71883 10.8735C1.99934 11.1667 2.28952 11.4688 2.39889 11.7344C2.50008 11.9777 2.50603 12.3809 2.51199 12.7716C2.52315 13.4978 2.53505 14.3207 3.10722 14.8929C3.6794 15.465 4.50231 15.4769 5.2285 15.4881C5.61913 15.494 6.02241 15.5 6.26571 15.6011C6.53059 15.7106 6.83341 16.0008 7.12657 16.2812C7.63997 16.7746 8.22329 17.3333 9.00008 17.3333C9.77684 17.3333 10.3594 16.7746 10.8736 16.2812C11.1667 16.0008 11.4688 15.7106 11.7345 15.6011C11.9778 15.5 12.381 15.494 12.7717 15.4881C13.4979 15.4769 14.3207 15.465 14.8929 14.8929C15.4651 14.3207 15.477 13.4978 15.4882 12.7716C15.4941 12.3809 15.5001 11.9777 15.6012 11.7344C15.7107 11.4695 16.0008 11.1667 16.2813 10.8735C16.7747 10.3601 17.3334 9.77676 17.3334 9C17.3334 8.22321 16.7747 7.64063 16.2813 7.12648ZM12.3974 7.63542L8.23074 11.8021C8.17545 11.8574 8.1098 11.9013 8.03755 11.9313C7.96528 11.9612 7.88782 11.9767 7.8096 11.9767C7.73139 11.9767 7.65393 11.9612 7.58166 11.9313C7.50941 11.9013 7.44376 11.8574 7.38847 11.8021L5.60276 10.0164C5.49107 9.90466 5.42832 9.75323 5.42832 9.59523C5.42832 9.43723 5.49107 9.28581 5.60276 9.17409C5.71445 9.06238 5.86594 8.99966 6.02389 8.99966C6.18184 8.99966 6.33333 9.06238 6.44502 9.17409L7.8096 10.5394L11.5551 6.79315C11.6105 6.73784 11.6761 6.69398 11.7484 6.66404C11.8207 6.63412 11.8981 6.61871 11.9763 6.61871C12.0545 6.61871 12.1319 6.63412 12.2042 6.66404C12.2765 6.69398 12.3421 6.73784 12.3974 6.79315C12.4527 6.84845 12.4966 6.91411 12.5265 6.98637C12.5565 7.05863 12.5718 7.13607 12.5718 7.21428C12.5718 7.29249 12.5565 7.36994 12.5265 7.4422C12.4966 7.51445 12.4527 7.58011 12.3974 7.63542Z" fill="#2563EB"/>
</svg>
